#define check_width 15
#define check_height 15
static unsigned char check_bits[] = {
   0x00, 0x60, 0x00, 0x70, 0x00, 0x30, 0x00, 0x38, 0x00, 0x1c, 0x00, 0x0c,
   0x00, 0x0e, 0x00, 0x06, 0x02, 0x07, 0x87, 0x03, 0x8e, 0x01, 0xdc, 0x01,
   0xf8, 0x00, 0xf0, 0x00, 0x60, 0x00 };
