#define monkey_width 15
#define monkey_height 15
static unsigned char monkey_bits[] = {
   0x00, 0x00, 0x00, 0x00, 0x38, 0x1c, 0x7c, 0x32, 0xfe, 0x22, 0xd6, 0x6a,
   0xfe, 0x4c, 0xc4, 0x40, 0xfc, 0x61, 0xf8, 0x23, 0xf0, 0x3f, 0xf8, 0x0f,
   0xec, 0x07, 0x60, 0x06, 0x60, 0x06 };
